<?xml version="1.0" standalone="no"?>
<!DOCTYPE svg PUBLIC "-//W3C//DTD SVG 20010904//EN"
 "http://www.w3.org/TR/2001/REC-SVG-20010904/DTD/svg10.dtd">
<svg version="1.0" xmlns="http://www.w3.org/2000/svg"
 width="500.000000pt" height="500.000000pt" viewBox="0 0 500.000000 500.000000"
 preserveAspectRatio="xMidYMid meet">
<metadata>
Created by potrace 1.11, written by Peter Selinger 2001-2013
</metadata>
<g transform="translate(0.000000,500.000000) scale(0.100000,-0.100000)"
fill="#000000" stroke="none">
<path d="M0 2500 l0 -2500 2500 0 2500 0 0 2500 0 2500 -2500 0 -2500 0 0
-2500z m1394 2365 c15 -8 33 -15 40 -15 14 -1 66 -46 66 -59 0 -5 6 -11 13
-13 9 -4 13 -101 15 -430 2 -366 1 -428 -12 -441 -8 -8 -18 -26 -22 -41 -4
-16 -13 -26 -25 -26 -10 0 -22 -8 -28 -17 -8 -15 -25 -18 -125 -17 -103 0
-118 2 -131 20 -8 10 -15 15 -15 11 0 -18 -40 15 -40 34 0 11 -7 22 -15 25
-13 5 -15 64 -15 445 0 384 2 439 15 439 8 0 15 7 15 15 0 9 7 18 15 21 8 4
15 12 15 19 0 7 12 13 26 13 15 0 29 4 33 10 15 24 133 29 175 7z m2414 -2 c2
-7 8 -13 13 -13 12 0 49 -37 49 -50 0 -5 7 -10 15 -10 9 0 15 -9 15 -22 0 -13
6 -43 14 -68 10 -34 13 -122 11 -360 0 -173 -5 -328 -9 -345 -4 -16 -10 -49
-13 -73 -3 -24 -11 -46 -19 -49 -8 -3 -14 -11 -14 -19 0 -8 -10 -14 -24 -14
-13 0 -26 -7 -30 -15 -4 -12 -28 -15 -126 -15 -100 0 -120 2 -120 15 0 8 -9
15 -20 15 -11 0 -20 7 -20 15 0 8 -4 15 -10 15 -5 0 -10 7 -10 15 0 7 -8 18
-17 24 -17 9 -18 40 -18 427 0 325 3 418 13 421 6 3 12 11 12 18 0 17 57 75
75 75 7 0 16 7 19 16 5 13 22 15 108 12 70 -2 103 -7 106 -15z m-1284 -363
c572 4 776 2 784 -6 7 -8 12 -114 14 -300 2 -219 6 -288 16 -292 6 -2 12 -17
12 -33 0 -16 5 -29 11 -29 5 0 15 -13 20 -30 6 -16 15 -30 20 -30 5 0 9 -7 9
-15 0 -8 7 -15 15 -15 8 0 15 -7 15 -15 0 -8 9 -15 20 -15 11 0 20 -7 20 -15
0 -10 10 -15 30 -15 18 0 33 -6 36 -15 5 -12 33 -15 165 -15 135 0 159 2 159
15 0 10 10 15 30 15 20 0 30 5 30 15 0 8 7 15 15 15 19 0 55 31 55 47 0 7 5
13 10 13 6 0 10 7 10 15 0 8 6 15 14 15 20 0 26 95 26 403 0 231 2 267 15 267
8 0 15 5 15 10 0 6 82 10 226 10 140 0 223 -4 219 -10 -3 -5 24 -10 67 -12 52
-2 72 -7 70 -15 -1 -8 8 -13 23 -13 16 0 25 -6 25 -15 0 -8 9 -15 20 -15 11 0
20 -5 20 -10 0 -6 11 -21 24 -33 14 -13 28 -36 32 -53 4 -16 12 -32 18 -36 17
-11 15 -3830 -2 -3835 -6 -3 -12 -13 -12 -24 0 -48 -111 -159 -159 -159 -10 0
-21 -7 -25 -15 -5 -13 -247 -15 -2152 -13 -1707 2 -2148 6 -2152 16 -2 6 -15
12 -28 12 -14 0 -27 7 -30 15 -4 8 -12 15 -19 15 -18 0 -75 58 -75 76 0 8 -4
14 -10 14 -5 0 -13 12 -16 28 -4 15 -12 30 -18 34 -16 10 -16 3826 0 3836 6 4
14 18 17 32 8 30 68 100 85 100 7 0 12 7 12 15 0 9 9 15 25 15 15 0 25 6 25
14 0 20 68 26 345 32 168 4 240 2 268 -7 l37 -12 0 -304 c0 -263 2 -303 15
-303 10 0 15 -10 15 -30 0 -20 5 -30 15 -30 8 0 15 -7 15 -15 0 -22 50 -75 72
-75 10 0 18 -6 18 -14 0 -8 12 -17 27 -21 15 -3 31 -12 35 -18 4 -7 56 -11
151 -11 122 0 147 3 162 17 9 9 25 17 36 17 10 0 19 7 19 15 0 8 4 15 9 15 14
0 81 65 81 79 0 6 7 11 15 11 10 0 15 10 15 29 0 16 6 31 15 35 13 5 15 48 15
303 l0 298 33 16 c17 9 33 13 34 10 2 -3 351 -4 777 -1z"/>
<path d="M430 1920 l0 -1370 2055 0 2055 0 0 1370 0 1370 -2055 0 -2055 0 0
-1370z m2770 995 c0 -8 7 -15 15 -15 13 0 15 -34 15 -244 0 -134 -3 -251 -6
-260 -5 -14 -41 -16 -300 -16 -264 0 -296 2 -314 17 -19 17 -20 29 -20 251 0
229 0 235 23 258 l22 24 283 0 c244 0 282 -2 282 -15z m893 -5 c16 -19 17 -45
15 -273 l-3 -252 -299 -3 c-275 -2 -300 -1 -312 15 -17 22 -20 493 -4 493 6 0
10 6 10 14 0 8 6 17 13 19 6 3 136 6 287 6 265 1 276 0 293 -19z m-2653 -770
c19 -19 20 -33 20 -257 0 -206 -2 -239 -17 -255 -15 -17 -38 -18 -299 -18
-155 0 -289 3 -298 6 -14 5 -16 37 -16 255 0 223 2 251 18 268 16 18 34 19
295 20 264 1 278 0 297 -19z m880 6 c0 -8 7 -16 15 -20 23 -8 22 -461 -1 -494
-15 -22 -17 -22 -297 -22 -155 0 -292 3 -304 6 l-23 6 0 254 c0 219 2 254 15
254 8 0 15 7 15 15 0 13 39 15 290 15 241 0 290 -2 290 -14z m880 -1 c0 -8 7
-15 15 -15 13 0 15 -34 15 -250 0 -236 -1 -250 -19 -260 -12 -6 -127 -10 -305
-10 -283 0 -285 0 -300 22 -23 33 -24 486 -1 494 8 4 15 12 15 20 0 12 49 14
290 14 251 0 290 -2 290 -15z m890 -5 c19 -19 20 -33 20 -269 l0 -249 -22 -6
c-13 -3 -146 -6 -297 -6 -241 0 -277 2 -293 17 -16 15 -18 36 -18 255 0 213 2
240 18 257 16 18 34 19 295 20 264 1 278 0 297 -19z m-3194 -760 c8 0 14 5 14
10 0 13 488 11 496 -2 3 -5 17 -13 30 -18 l24 -10 0 -235 c0 -135 -4 -244 -10
-255 -5 -10 -24 -23 -41 -29 -45 -16 -475 -15 -534 1 l-45 12 0 258 c0 225 2
258 15 258 9 0 19 8 22 17 4 11 8 12 11 5 2 -7 10 -12 18 -12z m1384 10 c0 -5
13 -11 29 -15 18 -4 31 -14 35 -28 8 -32 7 -460 -2 -473 -4 -6 -21 -18 -38
-27 -26 -13 -74 -16 -287 -16 -144 -1 -257 3 -257 8 0 5 -11 12 -25 15 l-25 6
0 255 c0 247 1 255 20 255 10 0 25 7 32 15 11 12 54 15 266 14 138 -1 252 -5
252 -9z m922 -11 l28 -14 0 -251 0 -250 -34 -17 c-29 -13 -75 -16 -298 -16
-144 0 -257 3 -249 6 9 4 2 10 -20 17 l-34 11 -3 230 c-1 127 0 240 3 251 3
15 19 26 57 37 71 22 507 18 550 -4z m880 0 l28 -14 0 -257 0 -258 -24 0 c-14
0 -27 -4 -30 -9 -8 -12 -516 -15 -516 -3 0 5 -13 12 -30 16 l-30 6 0 250 0
250 38 19 c34 18 55 20 287 17 193 -2 256 -6 277 -17z"/>
</g>
</svg>
